<?xml version="1.0" encoding="utf-8"?>
<!-- Generator: Adobe Illustrator 19.2.0, SVG Export Plug-In . SVG Version: 6.00 Build 0)  -->
<svg version="1.1" xmlns="http://www.w3.org/2000/svg" xmlns:xlink="http://www.w3.org/1999/xlink" x="0px" y="0px"
	 viewBox="0 0 256 256" style="enable-background:new 0 0 256 256;" xml:space="preserve">
<style type="text/css">
	.st0{fill-rule:evenodd;clip-rule:evenodd;fill:#070608;}
	.st1{display:none;fill:#080B35;}
	.st2{fill:#2D54A4;}
	.st3{font-family:'Dashicons-Regular';}
	.st4{font-size:120px;}
	.st5{fill:#FFFFFF;}
</style>
<g id="Layer_1">
	<g>
		<polygon class="st0" points="192.2,192 192.2,248 192.2,256 256.2,192 248.1,192 		"/>
		<polygon class="st0" points="0.2,0 0.2,256 192.2,256 184.2,248 8.2,248 8.2,8 248.1,8 248.1,183.9 256.2,192 256.2,0 		"/>
	</g>
	<path class="st1" d="M141.4,182.7c0.5-5.3,5.3-9.2,10.6-8.6l14.4,1.5l0.1-0.4l-11.4-1.2c-4.6-0.5-8-5.2-7.4-10.5
		c0.5-5.3,4.7-9.2,9.4-8.8l38.2,3.9l5.4,0.1c0,0-7.8-3.6-1.8-31.9c6-28.3,21.9-17.7,21.9-17.7s0.2,24.2,1.1,27.7
		c0.9,3.4,19.5,39.7,19.5,39.7c0,1.9,11.5,3.8,11.5,5.8c-0.1,16.7,0,30.9,0,48.2c-12.4-3.2-19,6.5-45.4,6.5
		c-8.6,0-19.4-1.4-28.5-2.9l-23.8-2.4c-4.1-0.4-7-5.1-6.5-10.4c0.4-4.1,2.8-7.3,5.8-8.4l-3-0.3c-4.7-0.5-8.1-5.2-7.6-10.5
		c0.5-4.6,3.7-7.9,7.6-8.5l-1.2-0.1C144.7,192.7,140.9,188,141.4,182.7z"/>
</g>
<g id="Layer_2">
	<text transform="matrix(-1 0 0 1 188.2324 188)" class="st2 st3 st4"></text>
</g>
<g id="Layer_3">
	<g>
		<path class="st2" d="M93.4,73.9H159c4.2,0,7.5,3.4,7.5,7.5v25c0,4.2-3.4,7.5-7.5,7.5h-23.6l3.2,7.9l-14.2-7.9H93.4
			c-4.2,0-7.5-3.4-7.5-7.5v-25C85.9,77.3,89.3,73.9,93.4,73.9z"/>
		<path class="st5" d="M89.9,80.7c0.5-0.6,1.2-1,2.1-1c1.7-0.1,2.6,0.7,2.9,2.4c1,6.9,2.1,12.7,3.3,17.5l7.2-13.7
			c0.7-1.3,1.5-1.9,2.5-2c1.4-0.1,2.3,0.8,2.7,2.8c0.8,4.4,1.9,8.1,3.1,11.3c0.9-8.4,2.3-14.4,4.3-18.1c0.5-0.9,1.2-1.4,2.2-1.4
			c0.8-0.1,1.4,0.2,2.1,0.7c0.6,0.5,1,1.1,1,1.9c0,0.6-0.1,1.1-0.3,1.6c-1.3,2.4-2.3,6.4-3.2,11.9c-0.8,5.4-1.1,9.6-0.9,12.6
			c0.1,0.8-0.1,1.5-0.4,2.2c-0.4,0.7-1,1.1-1.7,1.2c-0.9,0.1-1.7-0.3-2.6-1.2c-3.1-3.1-5.5-7.8-7.3-14c-2.1,4.2-3.7,7.4-4.7,9.5
			c-1.9,3.7-3.6,5.6-5,5.7c-0.9,0.1-1.6-0.7-2.3-2.3c-1.7-4.3-3.5-12.7-5.4-25C89.3,82.1,89.5,81.3,89.9,80.7z"/>
		<path class="st5" d="M160.7,85.9c-1.2-2.1-2.9-3.3-5.3-3.8c-0.6-0.1-1.2-0.2-1.8-0.2c-3.2,0-5.7,1.6-7.7,4.9
			c-1.7,2.8-2.6,5.9-2.6,9.3c0,2.5,0.5,4.7,1.6,6.5c1.2,2.1,2.9,3.3,5.3,3.8c0.6,0.1,1.2,0.2,1.8,0.2c3.2,0,5.8-1.6,7.7-4.9
			c1.7-2.8,2.6-5.9,2.6-9.3C162.4,89.8,161.8,87.7,160.7,85.9L160.7,85.9z M156.6,95c-0.5,2.2-1.3,3.8-2.5,4.9
			c-1,0.9-1.8,1.2-2.7,1.1c-0.8-0.2-1.4-0.9-1.9-2.1c-0.4-1-0.6-2-0.6-3c0-0.8,0.1-1.6,0.2-2.4c0.3-1.4,0.9-2.7,1.7-3.9
			c1.1-1.6,2.2-2.3,3.4-2c0.8,0.2,1.4,0.9,1.9,2.1c0.4,1,0.6,2,0.6,3C156.8,93.4,156.8,94.2,156.6,95L156.6,95z"/>
		<path class="st5" d="M140.1,85.9c-1.2-2.1-3-3.3-5.3-3.8c-0.6-0.1-1.2-0.2-1.8-0.2c-3.2,0-5.7,1.6-7.7,4.9
			c-1.7,2.8-2.6,5.9-2.6,9.3c0,2.5,0.5,4.7,1.6,6.5c1.2,2.1,2.9,3.3,5.3,3.8c0.6,0.1,1.2,0.2,1.8,0.2c3.2,0,5.8-1.6,7.7-4.9
			c1.7-2.8,2.6-5.9,2.6-9.3C141.7,89.8,141.2,87.7,140.1,85.9L140.1,85.9z M135.9,95c-0.5,2.2-1.3,3.8-2.5,4.9
			c-1,0.9-1.8,1.2-2.7,1.1c-0.8-0.2-1.4-0.9-1.9-2.1c-0.4-1-0.6-2-0.6-3c0-0.8,0.1-1.6,0.2-2.4c0.3-1.4,0.9-2.7,1.7-3.9
			c1.1-1.6,2.2-2.3,3.4-2c0.8,0.2,1.4,0.9,1.9,2.1c0.4,1,0.6,2,0.6,3C136.2,93.4,136.1,94.2,135.9,95L135.9,95z"/>
	</g>
</g>
</svg>
